<svg height="123" width="440" xmlns="http://www.w3.org/2000/svg"><path d="m20.38 44.26-3.88-.46c-2.63-.34-2.92-.78-2.92-2.33 0 0-.11-5.9-.11-11.1v-5.05c5.51 0 10.24 1.01 12.57 9.66 1.45 5.37 4.25 12.51 11.63 12.51 2.1.07 4.18-.39 6.07-1.33l.42-.21-.46-1.77h-.37c-5.51.21-7.06-2.16-9.94-11.06-1.62-5.09-4.06-7.95-8.09-9.22 5.41-1.01 9.45-5.72 9.76-11.39 0-11.79-13.21-11.79-17.55-11.79h-7.09c-3.35 0-6.51.11-9.19 0h-.66v2.41l3.29.47c1.64.27 2.37.67 2.37 2.34v35.47c0 1.67-.74 2.07-2.35 2.33l-3.31.47v2.45h19.81zm-6.91-40.14c.94-.13 1.9-.19 2.85-.17 7.7 0 11.3 2.75 11.3 8.69 0 6.66-3.68 9.91-11.36 9.91h-2.79zm80.6 31.05h-2.41v.51c-.48 4.82-2.68 6.98-7.35 7.25-2.48.11-7.13.17-10.4.17-2.94 0-3.25 0-3.25-2.96v-15.75h7.61c4.28 0 5.77.25 6.25 5.05v.51h2.41v-14.58h-2.33v.51c-.4 4.06-1.51 4.93-6.25 4.93h-7.85v-16.27c3.53-.15 8.22-.15 11.62 0 4.04.21 6.86 1.46 7.35 6.89v.51h2.41v-11.14h-34.28v2.39l3.29.47c1.64.27 2.37.66 2.37 2.33v35.47c0 1.67-.74 2.07-2.35 2.33l-3.31.47v2.39h36.59zm35.54 8.67c-6.54 0-10.9-1.61-13.77-9.87l-.13-.38h-2.13l.31 9.66.24.17c4.55 2.78 9.77 4.16 15.05 3.97 9.47 0 16.08-5.81 16.08-14.1 0-9.15-8.42-12.13-12.46-13.55l-5.26-1.9c-4.63-1.61-6.71-4.04-6.71-7.91s3.25-6.43 8.29-6.43 8.95 3.07 11.03 8.45l.15.36h2.28l-.72-8.9h-.28a25.64 25.64 0 0 0 -12.61-3.3c-7.35 0-14.7 4.27-14.7 12.43 0 3.42 1.23 9.49 9.5 12.45l6.52 2.26c5.51 1.9 8.29 5.01 8.29 9.3s-3.35 7.29-8.97 7.29zm56 3.63c13.47 0 23.14-9.91 23.14-23.42.29-12.95-9.65-23.69-22.19-23.99-.32-.01-.63-.01-.95 0-13.45 0-23.23 9.94-23.23 23.65s9.78 23.76 23.23 23.76zm0-43.86c9.7 0 15.25 7.38 15.25 20.27s-5.51 20.02-15.25 20.02-15.25-7.31-15.25-20.02 5.57-20.25 15.25-20.25zm44.46 2.39v21.35c0 13.28 6.05 20.12 17.96 20.12 11.45 0 17.5-6.93 17.5-20v-9.67c0-3.95.11-8.39.11-8.45 0-3.57.5-6.09 5.68-6.09h.55v-2.46h-16.69v2.47h.55c5.18 0 5.62 2.52 5.68 6.09 0 0 .11 4.16.11 8.37v9.49c0 10.59-4.06 15.75-12.42 15.75s-11.85-5.07-11.85-15.92v-21.05c0-1.65.74-2.07 2.35-2.33l3.31-.47v-2.4h-18.49v2.39l3.29.47c1.63.27 2.36.69 2.36 2.34zm77.8 38.26-3.88-.46c-2.63-.34-2.92-.78-2.92-2.33 0 0-.11-5.9-.11-11.1v-5.05c5.51 0 10.24 1.01 12.57 9.66 1.45 5.37 4.25 12.51 11.63 12.51 2.1.07 4.18-.39 6.07-1.33l.42-.21-.46-1.77h-.44c-5.51.21-7.06-2.16-9.94-11.06-1.62-5.09-4.06-7.95-8.09-9.22 5.41-1.01 9.45-5.72 9.76-11.39 0-11.79-13.21-11.79-17.55-11.79h-7.09c-3.35 0-6.51.11-9.19 0h-.57v2.41l3.29.47c1.64.27 2.37.66 2.37 2.33v35.47c0 1.67-.74 2.07-2.35 2.33l-3.31.47v2.45h19.81zm-6.91-40.14c.94-.13 1.9-.19 2.85-.17 7.7 0 11.3 2.75 11.3 8.69 0 6.66-3.68 9.91-11.36 9.91h-2.79zm67.34 43.35c5.68-.01 11.26-1.63 16.12-4.67l.2-.13 1.84-9.66h-2.35l-.13.36c-3.23 8.6-10.31 10.4-15.7 10.4-8.36 0-16.8-6.09-16.8-19.68 0-9.49 4.17-20.38 15.93-20.38 7.55 0 12.87 3 15.84 8.9l.09.28h2.15l-1.14-9.75-2.52-.68a50.6 50.6 0 0 0 -14.37-2.45c-13.69 0-24.02 10.27-24.02 23.89s10.29 23.57 24.86 23.57zm71.57-12.3h-2.41v.51c-.48 4.82-2.68 7-7.35 7.25-2.48.11-7.13.17-10.4.17-2.94 0-3.25 0-3.25-2.96v-15.75h7.77c4.28 0 5.77.25 6.25 5.05v.51h2.41v-14.58h-2.41v.51c-.4 4.06-1.51 4.93-6.25 4.93h-7.77v-16.27c3.53-.15 8.22-.15 11.62 0 4.04.21 6.86 1.46 7.35 6.89v.51h2.41v-11.14h-34.42v2.39l3.29.47c1.64.27 2.37.66 2.37 2.33v35.47c0 1.67-.74 2.07-2.35 2.33l-3.31.47v2.39h36.58zm-430.04 66.92c.65-.61 1.03-1.47 1.03-2.37.03-1.28-.79-2.41-1.98-2.75.84-.43 1.38-1.31 1.38-2.28-.01-.63-.26-1.23-.7-1.67a3.895 3.895 0 0 0 -2.98-1.06h-6.58v11.08h6.84c1.08.11 2.16-.23 2.99-.95zm-7.35-8.07h3.86c.4-.04.81.09 1.1.38.21.21.33.5.33.8 0 .34-.13.66-.37.89-.29.26-.68.39-1.07.36h-3.9zm0 7.06v-2.79h4.26c.45-.02.89.15 1.21.47.24.25.38.58.39.93 0 .36-.14.71-.39.97-.34.28-.77.43-1.21.42zm26.27-5.64c0-.86-.33-1.69-.92-2.3-.89-.87-2.1-1.31-3.33-1.21h-6.12v11.1h2.43v-4.08h3.29l2.24 4.08h2.78l-2.59-4.46c1.29-.46 2.18-1.71 2.22-3.13zm-3.97 1.46h-3.97v-2.9h3.79c.49-.05.97.13 1.32.47.25.25.39.6.39.97-.02.83-.68 1.48-1.49 1.46-.02.01-.03.01-.04 0zm15.14-4.95-5.13 11.08h2.55l.99-2.33h5.11l1.01 2.33h2.66l-5.11-11.08zm-.75 6.83 1.67-3.93h.11l1.67 3.93zm17.07-2.6h.02l5.62 6.85h2.1v-11.08h-2.43v6.87h-.02l-5.64-6.87h-2.08v11.08h2.43zm15.97-4.23v11.08h5.2c1.54.12 3.07-.4 4.23-1.46a5.64 5.64 0 0 0 1.6-4.1c.03-1.47-.5-2.89-1.49-3.95a5.665 5.665 0 0 0 -4.34-1.58zm8.49 5.54c.05 1.01-.32 1.99-1.01 2.69-.65.6-1.51.89-2.37.8h-2.74v-6.93h2.7c.9-.09 1.8.23 2.44.89.65.69 1 1.6.98 2.55zm9.89-5.54h2.43v11.08h-2.43zm13.09 4.23h.02l5.6 6.85h2.1v-11.08h-2.43v6.87h-.02l-5.64-6.87h-2.08v11.08h2.45zm21.12-2.46c1.34.02 2.64.51 3.68 1.39l1.6-1.52a8.547 8.547 0 0 0 -5.24-1.9c-3.14-.18-5.83 2.3-6.01 5.54s2.22 6.02 5.36 6.21c.22.01.43.01.65 0 1.85-.03 3.66-.64 5.18-1.73v-5.05h-5.51v1.99h3.33v1.9c-.86.5-1.83.76-2.81.74-2.03.05-3.71-1.61-3.76-3.71s1.56-3.83 3.59-3.88zm24.09 4.66h4.08v-2.08h-4.08v-2.24h6.71v-2.11h-9.14v11.08h2.43zm18.55 5c3.14-.3 5.45-3.18 5.16-6.43s-3.08-5.63-6.22-5.33c-2.93.28-5.17 2.81-5.18 5.85.13 3.39 2.9 6.04 6.18 5.91zm0-9.66c2.03 0 3.68 1.7 3.68 3.8s-1.65 3.8-3.68 3.8-3.68-1.7-3.68-3.8 1.65-3.8 3.68-3.8zm23.93 1.72c0-.86-.33-1.69-.92-2.3-.89-.86-2.09-1.3-3.31-1.21h-6.12v11.1h2.43v-4.08h3.25l2.24 4.08h2.78l-2.59-4.46c1.3-.45 2.2-1.7 2.24-3.13zm-3.97 1.46h-3.95v-2.9h3.79c.48-.04.96.14 1.3.49.25.25.39.6.39.97-.03.83-.7 1.47-1.5 1.44-.02.01-.03 0-.03 0zm20.1 6.13h2.43v-4.08h3.68c1.15.09 2.29-.29 3.18-1.06 1.3-1.22 1.4-3.29.23-4.64-.03-.03-.05-.06-.08-.09-.89-.87-2.1-1.31-3.33-1.21h-6.12zm2.43-9.03h3.79c.48-.04.95.12 1.3.46.26.27.4.63.4 1.01-.01.39-.17.76-.44 1.02-.36.3-.81.45-1.27.42h-3.79v-2.91zm24.11.06v-2.11h-9.21v11.08h9.6v-2.08h-7.19v-2.64h4.08v-2.09h-4.08v-2.16zm6.36 3.41c.13 3.39 2.9 6.04 6.18 5.91h.07c3.14-.3 5.45-3.18 5.16-6.43s-3.08-5.63-6.22-5.33c-2.93.29-5.18 2.82-5.19 5.85zm10.02 0c0 2.1-1.64 3.8-3.67 3.8h-.09c-2.03-.05-3.63-1.79-3.58-3.89s1.74-3.75 3.77-3.7c1.98.05 3.57 1.73 3.57 3.79zm9.79-5.52v11.08h2.43v-4.08h3.68c1.15.09 2.29-.29 3.18-1.06 1.3-1.22 1.4-3.29.23-4.64-.03-.03-.05-.06-.08-.09-.89-.87-2.1-1.31-3.33-1.21zm7.52 2.54c.26.27.4.63.4 1.01-.01.39-.17.76-.44 1.02-.36.3-.81.45-1.27.42h-3.79v-2.94h3.79c.49-.03.96.15 1.31.49zm18.75 6.46h-6.51v-9h-2.42v11.08h8.93zm16.01-6.89v-2.11h-9.21v11.08h9.59v-2.08h-7.18v-2.64h4.08v-2.09h-4.08v-2.16zm25.38 2.81c-.53.87-1.15 1.68-1.84 2.43l-2.06-2.16c-.31-.32-1.43-1.31-1.43-2.03 0-.4.35-.8 1.1-.8.75.05 1.48.26 2.15.63l1.01-1.9c-.98-.51-2.05-.79-3.14-.84-1.84 0-3.53 1.08-3.53 2.85 0 .55.18 1.08.5 1.52-1.49.35-2.56 1.69-2.61 3.26.14 2.02 1.83 3.54 3.79 3.4.06 0 .12-.01.18-.02 1.31-.03 2.59-.44 3.68-1.2l.94.95h3l-2.26-2.35c.86-.89 1.63-1.87 2.3-2.92zm-5.52 4.44c-.83 0-1.84-.4-1.84-1.58.04-.82.56-1.53 1.3-1.8l2.65 2.73c-.65.43-1.4.66-2.17.66zm22.81-9.36v11.08h2.43v-4.08h3.68c1.15.09 2.29-.29 3.18-1.06 1.3-1.22 1.4-3.29.23-4.64-.03-.03-.05-.06-.08-.09-.89-.87-2.1-1.31-3.33-1.21zm7.52 2.54c.26.27.4.63.4 1.01-.01.39-.17.76-.44 1.02-.36.3-.81.45-1.27.42h-3.79v-2.94h3.79c.49-.03.96.15 1.31.49zm9.81-2.54v11.08h8.92v-2.08h-6.49v-9zm19.32 0-5.13 11.08h2.55l.99-2.33h5.11l1.01 2.33h2.67l-5.13-11.08zm-.75 6.83 1.67-3.93h.11l1.67 3.93zm19.61 4.6c2.08-.01 4.09-.82 5.62-2.28l-1.54-1.58a5.667 5.667 0 0 1 -3.88 1.77c-2.03 0-3.68-1.7-3.68-3.8s1.65-3.8 3.68-3.8c1.35.03 2.64.54 3.68 1.42l1.53-1.59a8.473 8.473 0 0 0 -5.35-1.9c-3.15 0-5.7 2.63-5.7 5.88s2.55 5.88 5.7 5.88zm21.76-9.32v-2.11h-9.21v11.08h9.6v-2.08h-7.19v-2.64h4.08v-2.09h-4.08v-2.16zm12.39 2.09c-1.43-.11-2.89-.19-2.89-1.18s.97-1.35 2.08-1.35c1.38-.01 2.73.4 3.88 1.2l1.4-1.69a9.822 9.822 0 0 0 -5.2-1.5c-2.08 0-4.58.84-4.58 3.51 0 2.68 2.78 3.15 5.18 3.15 1.65.13 2.79.38 2.79 1.44s-1.12 1.58-2.52 1.58a7.439 7.439 0 0 1 -4.74-1.9l-1.38 1.67a9.267 9.267 0 0 0 6.08 2.18c2.7 0 4.98-1.06 4.98-3.8.01-2.94-3.13-3.18-5.08-3.31zm-434.82 25.22h439.89v1.63h-439.89z" fill="#fff"/></svg>